<?xml version="1.0" encoding="utf-8" standalone="no"?>
<!DOCTYPE svg PUBLIC "-//W3C//DTD SVG 1.1//EN"
  "http://www.w3.org/Graphics/SVG/1.1/DTD/svg11.dtd">
<!-- Created with matplotlib (https://matplotlib.org/) -->
<svg height="277.314375pt" version="1.1" viewBox="0 0 410.846292 277.314375" width="410.846292pt" xmlns="http://www.w3.org/2000/svg" xmlns:xlink="http://www.w3.org/1999/xlink">
 <defs>
  <style type="text/css">
*{stroke-linecap:butt;stroke-linejoin:round;}
  </style>
 </defs>
 <g id="figure_1">
  <g id="patch_1">
   <path d="M 0 277.314375 
L 410.846292 277.314375 
L 410.846292 0 
L 0 0 
z
" style="fill:none;"/>
  </g>
  <g id="axes_1">
   <g id="patch_2">
    <path d="M 66.053125 239.758125 
L 400.853125 239.758125 
L 400.853125 22.318125 
L 66.053125 22.318125 
z
" style="fill:#ffffff;"/>
   </g>
   <g id="PathCollection_1">
    <defs>
     <path d="M 0 3 
C 0.795609 3 1.55874 2.683901 2.12132 2.12132 
C 2.683901 1.55874 3 0.795609 3 0 
C 3 -0.795609 2.683901 -1.55874 2.12132 -2.12132 
C 1.55874 -2.683901 0.795609 -3 0 -3 
C -0.795609 -3 -1.55874 -2.683901 -2.12132 -2.12132 
C -2.683901 -1.55874 -3 -0.795609 -3 0 
C -3 0.795609 -2.683901 1.55874 -2.12132 2.12132 
C -1.55874 2.683901 -0.795609 3 0 3 
z
" id="mce7f3a79e7" style="stroke:#ffa500;"/>
    </defs>
    <g clip-path="url(#pdebf0c949a)">
     <use style="fill:#ffa500;stroke:#ffa500;" x="81.271326" xlink:href="#mce7f3a79e7" y="229.874489"/>
    </g>
   </g>
   <g id="PathCollection_2">
    <g clip-path="url(#pdebf0c949a)">
     <use style="fill:#ffa500;stroke:#ffa500;" x="81.271327" xlink:href="#mce7f3a79e7" y="229.874489"/>
    </g>
   </g>
   <g id="PathCollection_3">
    <g clip-path="url(#pdebf0c949a)">
     <use style="fill:#ffa500;stroke:#ffa500;" x="81.271307" xlink:href="#mce7f3a79e7" y="229.874489"/>
    </g>
   </g>
   <g id="PathCollection_4">
    <g clip-path="url(#pdebf0c949a)">
     <use style="fill:#ffa500;stroke:#ffa500;" x="81.271318" xlink:href="#mce7f3a79e7" y="229.874489"/>
    </g>
   </g>
   <g id="PathCollection_5">
    <g clip-path="url(#pdebf0c949a)">
     <use style="fill:#ffa500;stroke:#ffa500;" x="81.271334" xlink:href="#mce7f3a79e7" y="229.854719"/>
    </g>
   </g>
   <g id="PathCollection_6">
    <g clip-path="url(#pdebf0c949a)">
     <use style="fill:#ffa500;stroke:#ffa500;" x="81.271398" xlink:href="#mce7f3a79e7" y="229.854719"/>
    </g>
   </g>
   <g id="PathCollection_7">
    <g clip-path="url(#pdebf0c949a)">
     <use style="fill:#ffa500;stroke:#ffa500;" x="81.271402" xlink:href="#mce7f3a79e7" y="229.854719"/>
    </g>
   </g>
   <g id="PathCollection_8">
    <g clip-path="url(#pdebf0c949a)">
     <use style="fill:#ffa500;stroke:#ffa500;" x="81.271428" xlink:href="#mce7f3a79e7" y="229.854719"/>
    </g>
   </g>
   <g id="PathCollection_9">
    <g clip-path="url(#pdebf0c949a)">
     <use style="fill:#ffa500;stroke:#ffa500;" x="81.271416" xlink:href="#mce7f3a79e7" y="229.815181"/>
    </g>
   </g>
   <g id="PathCollection_10">
    <g clip-path="url(#pdebf0c949a)">
     <use style="fill:#ffa500;stroke:#ffa500;" x="81.271435" xlink:href="#mce7f3a79e7" y="229.815181"/>
    </g>
   </g>
   <g id="PathCollection_11">
    <g clip-path="url(#pdebf0c949a)">
     <use style="fill:#ffa500;stroke:#ffa500;" x="81.271415" xlink:href="#mce7f3a79e7" y="229.815181"/>
    </g>
   </g>
   <g id="PathCollection_12">
    <g clip-path="url(#pdebf0c949a)">
     <use style="fill:#ffa500;stroke:#ffa500;" x="81.271418" xlink:href="#mce7f3a79e7" y="229.815181"/>
    </g>
   </g>
   <g id="PathCollection_13">
    <g clip-path="url(#pdebf0c949a)">
     <use style="fill:#ffa500;stroke:#ffa500;" x="81.27181" xlink:href="#mce7f3a79e7" y="229.696565"/>
    </g>
   </g>
   <g id="PathCollection_14">
    <g clip-path="url(#pdebf0c949a)">
     <use style="fill:#ffa500;stroke:#ffa500;" x="81.271876" xlink:href="#mce7f3a79e7" y="229.696565"/>
    </g>
   </g>
   <g id="PathCollection_15">
    <g clip-path="url(#pdebf0c949a)">
     <use style="fill:#ffa500;stroke:#ffa500;" x="81.271768" xlink:href="#mce7f3a79e7" y="229.696565"/>
    </g>
   </g>
   <g id="PathCollection_16">
    <g clip-path="url(#pdebf0c949a)">
     <use style="fill:#ffa500;stroke:#ffa500;" x="81.271924" xlink:href="#mce7f3a79e7" y="229.696565"/>
    </g>
   </g>
   <g id="PathCollection_17">
    <g clip-path="url(#pdebf0c949a)">
     <use style="fill:#ffa500;stroke:#ffa500;" x="81.272823" xlink:href="#mce7f3a79e7" y="229.498873"/>
    </g>
   </g>
   <g id="PathCollection_18">
    <g clip-path="url(#pdebf0c949a)">
     <use style="fill:#ffa500;stroke:#ffa500;" x="81.272866" xlink:href="#mce7f3a79e7" y="229.498873"/>
    </g>
   </g>
   <g id="PathCollection_19">
    <g clip-path="url(#pdebf0c949a)">
     <use style="fill:#ffa500;stroke:#ffa500;" x="81.272459" xlink:href="#mce7f3a79e7" y="229.498873"/>
    </g>
   </g>
   <g id="PathCollection_20">
    <g clip-path="url(#pdebf0c949a)">
     <use style="fill:#ffa500;stroke:#ffa500;" x="81.27312" xlink:href="#mce7f3a79e7" y="229.498873"/>
    </g>
   </g>
   <g id="PathCollection_21">
    <g clip-path="url(#pdebf0c949a)">
     <use style="fill:#ffa500;stroke:#ffa500;" x="81.277254" xlink:href="#mce7f3a79e7" y="229.103488"/>
    </g>
   </g>
   <g id="PathCollection_22">
    <g clip-path="url(#pdebf0c949a)">
     <use style="fill:#ffa500;stroke:#ffa500;" x="81.276157" xlink:href="#mce7f3a79e7" y="229.103488"/>
    </g>
   </g>
   <g id="PathCollection_23">
    <g clip-path="url(#pdebf0c949a)">
     <use style="fill:#ffa500;stroke:#ffa500;" x="81.276334" xlink:href="#mce7f3a79e7" y="229.103488"/>
    </g>
   </g>
   <g id="PathCollection_24">
    <g clip-path="url(#pdebf0c949a)">
     <use style="fill:#ffa500;stroke:#ffa500;" x="81.276855" xlink:href="#mce7f3a79e7" y="229.103488"/>
    </g>
   </g>
   <g id="PathCollection_25">
    <g clip-path="url(#pdebf0c949a)">
     <use style="fill:#ffa500;stroke:#ffa500;" x="81.298526" xlink:href="#mce7f3a79e7" y="227.917333"/>
    </g>
   </g>
   <g id="PathCollection_26">
    <g clip-path="url(#pdebf0c949a)">
     <use style="fill:#ffa500;stroke:#ffa500;" x="81.305672" xlink:href="#mce7f3a79e7" y="227.917333"/>
    </g>
   </g>
   <g id="PathCollection_27">
    <g clip-path="url(#pdebf0c949a)">
     <use style="fill:#ffa500;stroke:#ffa500;" x="81.306886" xlink:href="#mce7f3a79e7" y="227.917333"/>
    </g>
   </g>
   <g id="PathCollection_28">
    <g clip-path="url(#pdebf0c949a)">
     <use style="fill:#ffa500;stroke:#ffa500;" x="81.298304" xlink:href="#mce7f3a79e7" y="227.917333"/>
    </g>
   </g>
   <g id="PathCollection_29">
    <g clip-path="url(#pdebf0c949a)">
     <use style="fill:#ffa500;stroke:#ffa500;" x="81.392726" xlink:href="#mce7f3a79e7" y="225.940408"/>
    </g>
   </g>
   <g id="PathCollection_30">
    <g clip-path="url(#pdebf0c949a)">
     <use style="fill:#ffa500;stroke:#ffa500;" x="81.38203" xlink:href="#mce7f3a79e7" y="225.940408"/>
    </g>
   </g>
   <g id="PathCollection_31">
    <g clip-path="url(#pdebf0c949a)">
     <use style="fill:#ffa500;stroke:#ffa500;" x="81.382691" xlink:href="#mce7f3a79e7" y="225.940408"/>
    </g>
   </g>
   <g id="PathCollection_32">
    <g clip-path="url(#pdebf0c949a)">
     <use style="fill:#ffa500;stroke:#ffa500;" x="81.384529" xlink:href="#mce7f3a79e7" y="225.940408"/>
    </g>
   </g>
   <g id="PathCollection_33">
    <g clip-path="url(#pdebf0c949a)">
     <use style="fill:#ffa500;stroke:#ffa500;" x="83.190623" xlink:href="#mce7f3a79e7" y="214.078858"/>
    </g>
   </g>
   <g id="PathCollection_34">
    <g clip-path="url(#pdebf0c949a)">
     <use style="fill:#ffa500;stroke:#ffa500;" x="83.229902" xlink:href="#mce7f3a79e7" y="214.078858"/>
    </g>
   </g>
   <g id="PathCollection_35">
    <g clip-path="url(#pdebf0c949a)">
     <use style="fill:#ffa500;stroke:#ffa500;" x="83.198778" xlink:href="#mce7f3a79e7" y="214.078858"/>
    </g>
   </g>
   <g id="PathCollection_36">
    <g clip-path="url(#pdebf0c949a)">
     <use style="fill:#ffa500;stroke:#ffa500;" x="83.088179" xlink:href="#mce7f3a79e7" y="214.078858"/>
    </g>
   </g>
   <g id="PathCollection_37">
    <g clip-path="url(#pdebf0c949a)">
     <use style="fill:#ffa500;stroke:#ffa500;" x="84.24326" xlink:href="#mce7f3a79e7" y="210.125008"/>
    </g>
   </g>
   <g id="PathCollection_38">
    <g clip-path="url(#pdebf0c949a)">
     <use style="fill:#ffa500;stroke:#ffa500;" x="84.232229" xlink:href="#mce7f3a79e7" y="210.125008"/>
    </g>
   </g>
   <g id="PathCollection_39">
    <g clip-path="url(#pdebf0c949a)">
     <use style="fill:#ffa500;stroke:#ffa500;" x="84.240171" xlink:href="#mce7f3a79e7" y="210.125008"/>
    </g>
   </g>
   <g id="PathCollection_40">
    <g clip-path="url(#pdebf0c949a)">
     <use style="fill:#ffa500;stroke:#ffa500;" x="84.226848" xlink:href="#mce7f3a79e7" y="210.125008"/>
    </g>
   </g>
   <g id="PathCollection_41">
    <g clip-path="url(#pdebf0c949a)">
     <use style="fill:#ffa500;stroke:#ffa500;" x="93.123145" xlink:href="#mce7f3a79e7" y="190.355759"/>
    </g>
   </g>
   <g id="PathCollection_42">
    <g clip-path="url(#pdebf0c949a)">
     <use style="fill:#ffa500;stroke:#ffa500;" x="93.14271" xlink:href="#mce7f3a79e7" y="190.355759"/>
    </g>
   </g>
   <g id="PathCollection_43">
    <g clip-path="url(#pdebf0c949a)">
     <use style="fill:#ffa500;stroke:#ffa500;" x="96.756032" xlink:href="#mce7f3a79e7" y="190.355759"/>
    </g>
   </g>
   <g id="PathCollection_44">
    <g clip-path="url(#pdebf0c949a)">
     <use style="fill:#ffa500;stroke:#ffa500;" x="95.45121" xlink:href="#mce7f3a79e7" y="190.355759"/>
    </g>
   </g>
   <g id="PathCollection_45">
    <g clip-path="url(#pdebf0c949a)">
     <use style="fill:#ffa500;stroke:#ffa500;" x="134.445965" xlink:href="#mce7f3a79e7" y="150.817259"/>
    </g>
   </g>
   <g id="PathCollection_46">
    <g clip-path="url(#pdebf0c949a)">
     <use style="fill:#ffa500;stroke:#ffa500;" x="129.028589" xlink:href="#mce7f3a79e7" y="150.817259"/>
    </g>
   </g>
   <g id="PathCollection_47">
    <g clip-path="url(#pdebf0c949a)">
     <use style="fill:#ffa500;stroke:#ffa500;" x="128.867039" xlink:href="#mce7f3a79e7" y="150.817259"/>
    </g>
   </g>
   <g id="PathCollection_48">
    <g clip-path="url(#pdebf0c949a)">
     <use style="fill:#ffa500;stroke:#ffa500;" x="129.366107" xlink:href="#mce7f3a79e7" y="150.817259"/>
    </g>
   </g>
   <g id="PathCollection_49">
    <g clip-path="url(#pdebf0c949a)">
     <use style="fill:#ffa500;stroke:#ffa500;" x="81.27164" xlink:href="#mce7f3a79e7" y="229.736104"/>
    </g>
   </g>
   <g id="PathCollection_50">
    <g clip-path="url(#pdebf0c949a)">
     <use style="fill:#ffa500;stroke:#ffa500;" x="81.271639" xlink:href="#mce7f3a79e7" y="229.736104"/>
    </g>
   </g>
   <g id="PathCollection_51">
    <g clip-path="url(#pdebf0c949a)">
     <use style="fill:#ffa500;stroke:#ffa500;" x="81.271723" xlink:href="#mce7f3a79e7" y="229.736104"/>
    </g>
   </g>
   <g id="PathCollection_52">
    <g clip-path="url(#pdebf0c949a)">
     <use style="fill:#ffa500;stroke:#ffa500;" x="81.271573" xlink:href="#mce7f3a79e7" y="229.736104"/>
    </g>
   </g>
   <g id="PathCollection_53">
    <g clip-path="url(#pdebf0c949a)">
     <use style="fill:#ffa500;stroke:#ffa500;" x="277.338346" xlink:href="#mce7f3a79e7" y="71.740261"/>
    </g>
   </g>
   <g id="PathCollection_54">
    <g clip-path="url(#pdebf0c949a)">
     <use style="fill:#ffa500;stroke:#ffa500;" x="271.418622" xlink:href="#mce7f3a79e7" y="71.740261"/>
    </g>
   </g>
   <g id="PathCollection_55">
    <g clip-path="url(#pdebf0c949a)">
     <use style="fill:#ffa500;stroke:#ffa500;" x="270.038191" xlink:href="#mce7f3a79e7" y="71.740261"/>
    </g>
   </g>
   <g id="PathCollection_56">
    <g clip-path="url(#pdebf0c949a)">
     <use style="fill:#ffa500;stroke:#ffa500;" x="270.77225" xlink:href="#mce7f3a79e7" y="71.740261"/>
    </g>
   </g>
   <g id="PathCollection_57">
    <g clip-path="url(#pdebf0c949a)">
     <use style="fill:#ffa500;stroke:#ffa500;" x="385.634943" xlink:href="#mce7f3a79e7" y="32.201761"/>
    </g>
   </g>
   <g id="PathCollection_58">
    <g clip-path="url(#pdebf0c949a)">
     <use style="fill:#ffa500;stroke:#ffa500;" x="380.758554" xlink:href="#mce7f3a79e7" y="32.201761"/>
    </g>
   </g>
   <g id="PathCollection_59">
    <g clip-path="url(#pdebf0c949a)">
     <use style="fill:#ffa500;stroke:#ffa500;" x="381.552379" xlink:href="#mce7f3a79e7" y="32.201761"/>
    </g>
   </g>
   <g id="PathCollection_60">
    <g clip-path="url(#pdebf0c949a)">
     <use style="fill:#ffa500;stroke:#ffa500;" x="378.771313" xlink:href="#mce7f3a79e7" y="32.201761"/>
    </g>
   </g>
   <g id="PathCollection_61">
    <g clip-path="url(#pdebf0c949a)">
     <use style="fill:#ffa500;stroke:#ffa500;" x="81.295809" xlink:href="#mce7f3a79e7" y="228.312718"/>
    </g>
   </g>
   <g id="PathCollection_62">
    <g clip-path="url(#pdebf0c949a)">
     <use style="fill:#ffa500;stroke:#ffa500;" x="81.29161" xlink:href="#mce7f3a79e7" y="228.312718"/>
    </g>
   </g>
   <g id="PathCollection_63">
    <g clip-path="url(#pdebf0c949a)">
     <use style="fill:#ffa500;stroke:#ffa500;" x="81.294918" xlink:href="#mce7f3a79e7" y="228.312718"/>
    </g>
   </g>
   <g id="PathCollection_64">
    <g clip-path="url(#pdebf0c949a)">
     <use style="fill:#ffa500;stroke:#ffa500;" x="81.290168" xlink:href="#mce7f3a79e7" y="228.312718"/>
    </g>
   </g>
   <g id="PathCollection_65">
    <g clip-path="url(#pdebf0c949a)">
     <use style="fill:#ffa500;stroke:#ffa500;" x="81.72112" xlink:href="#mce7f3a79e7" y="221.986558"/>
    </g>
   </g>
   <g id="PathCollection_66">
    <g clip-path="url(#pdebf0c949a)">
     <use style="fill:#ffa500;stroke:#ffa500;" x="81.717724" xlink:href="#mce7f3a79e7" y="221.986558"/>
    </g>
   </g>
   <g id="PathCollection_67">
    <g clip-path="url(#pdebf0c949a)">
     <use style="fill:#ffa500;stroke:#ffa500;" x="81.729461" xlink:href="#mce7f3a79e7" y="221.986558"/>
    </g>
   </g>
   <g id="PathCollection_68">
    <g clip-path="url(#pdebf0c949a)">
     <use style="fill:#ffa500;stroke:#ffa500;" x="81.783704" xlink:href="#mce7f3a79e7" y="221.986558"/>
    </g>
   </g>
   <g id="matplotlib.axis_1">
    <g id="xtick_1">
     <g id="line2d_1">
      <defs>
       <path d="M 0 0 
L 0 3.5 
" id="m7c036282d1" style="stroke:#000000;stroke-width:0.8;"/>
      </defs>
      <g>
       <use style="stroke:#000000;stroke-width:0.8;" x="81.271269" xlink:href="#m7c036282d1" y="239.758125"/>
      </g>
     </g>
     <g id="text_1">
      <!-- 0 -->
      <defs>
       <path d="M 31.78125 66.40625 
Q 24.171875 66.40625 20.328125 58.90625 
Q 16.5 51.421875 16.5 36.375 
Q 16.5 21.390625 20.328125 13.890625 
Q 24.171875 6.390625 31.78125 6.390625 
Q 39.453125 6.390625 43.28125 13.890625 
Q 47.125 21.390625 47.125 36.375 
Q 47.125 51.421875 43.28125 58.90625 
Q 39.453125 66.40625 31.78125 66.40625 
z
M 31.78125 74.21875 
Q 44.046875 74.21875 50.515625 64.515625 
Q 56.984375 54.828125 56.984375 36.375 
Q 56.984375 17.96875 50.515625 8.265625 
Q 44.046875 -1.421875 31.78125 -1.421875 
Q 19.53125 -1.421875 13.0625 8.265625 
Q 6.59375 17.96875 6.59375 36.375 
Q 6.59375 54.828125 13.0625 64.515625 
Q 19.53125 74.21875 31.78125 74.21875 
z
" id="DejaVuSans-48"/>
      </defs>
      <g transform="translate(78.090019 254.356562)scale(0.1 -0.1)">
       <use xlink:href="#DejaVuSans-48"/>
      </g>
     </g>
    </g>
    <g id="xtick_2">
     <g id="line2d_2">
      <g>
       <use style="stroke:#000000;stroke-width:0.8;" x="119.977522" xlink:href="#m7c036282d1" y="239.758125"/>
      </g>
     </g>
     <g id="text_2">
      <!-- 250 -->
      <defs>
       <path d="M 19.1875 8.296875 
L 53.609375 8.296875 
L 53.609375 0 
L 7.328125 0 
L 7.328125 8.296875 
Q 12.9375 14.109375 22.625 23.890625 
Q 32.328125 33.6875 34.8125 36.53125 
Q 39.546875 41.84375 41.421875 45.53125 
Q 43.3125 49.21875 43.3125 52.78125 
Q 43.3125 58.59375 39.234375 62.25 
Q 35.15625 65.921875 28.609375 65.921875 
Q 23.96875 65.921875 18.8125 64.3125 
Q 13.671875 62.703125 7.8125 59.421875 
L 7.8125 69.390625 
Q 13.765625 71.78125 18.9375 73 
Q 24.125 74.21875 28.421875 74.21875 
Q 39.75 74.21875 46.484375 68.546875 
Q 53.21875 62.890625 53.21875 53.421875 
Q 53.21875 48.921875 51.53125 44.890625 
Q 49.859375 40.875 45.40625 35.40625 
Q 44.1875 33.984375 37.640625 27.21875 
Q 31.109375 20.453125 19.1875 8.296875 
z
" id="DejaVuSans-50"/>
       <path d="M 10.796875 72.90625 
L 49.515625 72.90625 
L 49.515625 64.59375 
L 19.828125 64.59375 
L 19.828125 46.734375 
Q 21.96875 47.46875 24.109375 47.828125 
Q 26.265625 48.1875 28.421875 48.1875 
Q 40.625 48.1875 47.75 41.5 
Q 54.890625 34.8125 54.890625 23.390625 
Q 54.890625 11.625 47.5625 5.09375 
Q 40.234375 -1.421875 26.90625 -1.421875 
Q 22.3125 -1.421875 17.546875 -0.640625 
Q 12.796875 0.140625 7.71875 1.703125 
L 7.71875 11.625 
Q 12.109375 9.234375 16.796875 8.0625 
Q 21.484375 6.890625 26.703125 6.890625 
Q 35.15625 6.890625 40.078125 11.328125 
Q 45.015625 15.765625 45.015625 23.390625 
Q 45.015625 31 40.078125 35.4375 
Q 35.15625 39.890625 26.703125 39.890625 
Q 22.75 39.890625 18.8125 39.015625 
Q 14.890625 38.140625 10.796875 36.28125 
z
" id="DejaVuSans-53"/>
      </defs>
      <g transform="translate(110.433772 254.356562)scale(0.1 -0.1)">
       <use xlink:href="#DejaVuSans-50"/>
       <use x="63.623047" xlink:href="#DejaVuSans-53"/>
       <use x="127.246094" xlink:href="#DejaVuSans-48"/>
      </g>
     </g>
    </g>
    <g id="xtick_3">
     <g id="line2d_3">
      <g>
       <use style="stroke:#000000;stroke-width:0.8;" x="158.683775" xlink:href="#m7c036282d1" y="239.758125"/>
      </g>
     </g>
     <g id="text_3">
      <!-- 500 -->
      <g transform="translate(149.140025 254.356562)scale(0.1 -0.1)">
       <use xlink:href="#DejaVuSans-53"/>
       <use x="63.623047" xlink:href="#DejaVuSans-48"/>
       <use x="127.246094" xlink:href="#DejaVuSans-48"/>
      </g>
     </g>
    </g>
    <g id="xtick_4">
     <g id="line2d_4">
      <g>
       <use style="stroke:#000000;stroke-width:0.8;" x="197.390028" xlink:href="#m7c036282d1" y="239.758125"/>
      </g>
     </g>
     <g id="text_4">
      <!-- 750 -->
      <defs>
       <path d="M 8.203125 72.90625 
L 55.078125 72.90625 
L 55.078125 68.703125 
L 28.609375 0 
L 18.3125 0 
L 43.21875 64.59375 
L 8.203125 64.59375 
z
" id="DejaVuSans-55"/>
      </defs>
      <g transform="translate(187.846278 254.356562)scale(0.1 -0.1)">
       <use xlink:href="#DejaVuSans-55"/>
       <use x="63.623047" xlink:href="#DejaVuSans-53"/>
       <use x="127.246094" xlink:href="#DejaVuSans-48"/>
      </g>
     </g>
    </g>
    <g id="xtick_5">
     <g id="line2d_5">
      <g>
       <use style="stroke:#000000;stroke-width:0.8;" x="236.096281" xlink:href="#m7c036282d1" y="239.758125"/>
      </g>
     </g>
     <g id="text_5">
      <!-- 1000 -->
      <defs>
       <path d="M 12.40625 8.296875 
L 28.515625 8.296875 
L 28.515625 63.921875 
L 10.984375 60.40625 
L 10.984375 69.390625 
L 28.421875 72.90625 
L 38.28125 72.90625 
L 38.28125 8.296875 
L 54.390625 8.296875 
L 54.390625 0 
L 12.40625 0 
z
" id="DejaVuSans-49"/>
      </defs>
      <g transform="translate(223.371281 254.356562)scale(0.1 -0.1)">
       <use xlink:href="#DejaVuSans-49"/>
       <use x="63.623047" xlink:href="#DejaVuSans-48"/>
       <use x="127.246094" xlink:href="#DejaVuSans-48"/>
       <use x="190.869141" xlink:href="#DejaVuSans-48"/>
      </g>
     </g>
    </g>
    <g id="xtick_6">
     <g id="line2d_6">
      <g>
       <use style="stroke:#000000;stroke-width:0.8;" x="274.802533" xlink:href="#m7c036282d1" y="239.758125"/>
      </g>
     </g>
     <g id="text_6">
      <!-- 1250 -->
      <g transform="translate(262.077533 254.356562)scale(0.1 -0.1)">
       <use xlink:href="#DejaVuSans-49"/>
       <use x="63.623047" xlink:href="#DejaVuSans-50"/>
       <use x="127.246094" xlink:href="#DejaVuSans-53"/>
       <use x="190.869141" xlink:href="#DejaVuSans-48"/>
      </g>
     </g>
    </g>
    <g id="xtick_7">
     <g id="line2d_7">
      <g>
       <use style="stroke:#000000;stroke-width:0.8;" x="313.508786" xlink:href="#m7c036282d1" y="239.758125"/>
      </g>
     </g>
     <g id="text_7">
      <!-- 1500 -->
      <g transform="translate(300.783786 254.356562)scale(0.1 -0.1)">
       <use xlink:href="#DejaVuSans-49"/>
       <use x="63.623047" xlink:href="#DejaVuSans-53"/>
       <use x="127.246094" xlink:href="#DejaVuSans-48"/>
       <use x="190.869141" xlink:href="#DejaVuSans-48"/>
      </g>
     </g>
    </g>
    <g id="xtick_8">
     <g id="line2d_8">
      <g>
       <use style="stroke:#000000;stroke-width:0.8;" x="352.215039" xlink:href="#m7c036282d1" y="239.758125"/>
      </g>
     </g>
     <g id="text_8">
      <!-- 1750 -->
      <g transform="translate(339.490039 254.356562)scale(0.1 -0.1)">
       <use xlink:href="#DejaVuSans-49"/>
       <use x="63.623047" xlink:href="#DejaVuSans-55"/>
       <use x="127.246094" xlink:href="#DejaVuSans-53"/>
       <use x="190.869141" xlink:href="#DejaVuSans-48"/>
      </g>
     </g>
    </g>
    <g id="xtick_9">
     <g id="line2d_9">
      <g>
       <use style="stroke:#000000;stroke-width:0.8;" x="390.921292" xlink:href="#m7c036282d1" y="239.758125"/>
      </g>
     </g>
     <g id="text_9">
      <!-- 2000 -->
      <g transform="translate(378.196292 254.356562)scale(0.1 -0.1)">
       <use xlink:href="#DejaVuSans-50"/>
       <use x="63.623047" xlink:href="#DejaVuSans-48"/>
       <use x="127.246094" xlink:href="#DejaVuSans-48"/>
       <use x="190.869141" xlink:href="#DejaVuSans-48"/>
      </g>
     </g>
    </g>
    <g id="text_10">
     <!-- Time (seconds) -->
     <defs>
      <path d="M -0.296875 72.90625 
L 61.375 72.90625 
L 61.375 64.59375 
L 35.5 64.59375 
L 35.5 0 
L 25.59375 0 
L 25.59375 64.59375 
L -0.296875 64.59375 
z
" id="DejaVuSans-84"/>
      <path d="M 9.421875 54.6875 
L 18.40625 54.6875 
L 18.40625 0 
L 9.421875 0 
z
M 9.421875 75.984375 
L 18.40625 75.984375 
L 18.40625 64.59375 
L 9.421875 64.59375 
z
" id="DejaVuSans-105"/>
      <path d="M 52 44.1875 
Q 55.375 50.25 60.0625 53.125 
Q 64.75 56 71.09375 56 
Q 79.640625 56 84.28125 50.015625 
Q 88.921875 44.046875 88.921875 33.015625 
L 88.921875 0 
L 79.890625 0 
L 79.890625 32.71875 
Q 79.890625 40.578125 77.09375 44.375 
Q 74.3125 48.1875 68.609375 48.1875 
Q 61.625 48.1875 57.5625 43.546875 
Q 53.515625 38.921875 53.515625 30.90625 
L 53.515625 0 
L 44.484375 0 
L 44.484375 32.71875 
Q 44.484375 40.625 41.703125 44.40625 
Q 38.921875 48.1875 33.109375 48.1875 
Q 26.21875 48.1875 22.15625 43.53125 
Q 18.109375 38.875 18.109375 30.90625 
L 18.109375 0 
L 9.078125 0 
L 9.078125 54.6875 
L 18.109375 54.6875 
L 18.109375 46.1875 
Q 21.1875 51.21875 25.484375 53.609375 
Q 29.78125 56 35.6875 56 
Q 41.65625 56 45.828125 52.96875 
Q 50 49.953125 52 44.1875 
z
" id="DejaVuSans-109"/>
      <path d="M 56.203125 29.59375 
L 56.203125 25.203125 
L 14.890625 25.203125 
Q 15.484375 15.921875 20.484375 11.0625 
Q 25.484375 6.203125 34.421875 6.203125 
Q 39.59375 6.203125 44.453125 7.46875 
Q 49.3125 8.734375 54.109375 11.28125 
L 54.109375 2.78125 
Q 49.265625 0.734375 44.1875 -0.34375 
Q 39.109375 -1.421875 33.890625 -1.421875 
Q 20.796875 -1.421875 13.15625 6.1875 
Q 5.515625 13.8125 5.515625 26.8125 
Q 5.515625 40.234375 12.765625 48.109375 
Q 20.015625 56 32.328125 56 
Q 43.359375 56 49.78125 48.890625 
Q 56.203125 41.796875 56.203125 29.59375 
z
M 47.21875 32.234375 
Q 47.125 39.59375 43.09375 43.984375 
Q 39.0625 48.390625 32.421875 48.390625 
Q 24.90625 48.390625 20.390625 44.140625 
Q 15.875 39.890625 15.1875 32.171875 
z
" id="DejaVuSans-101"/>
      <path id="DejaVuSans-32"/>
      <path d="M 31 75.875 
Q 24.46875 64.65625 21.28125 53.65625 
Q 18.109375 42.671875 18.109375 31.390625 
Q 18.109375 20.125 21.3125 9.0625 
Q 24.515625 -2 31 -13.1875 
L 23.1875 -13.1875 
Q 15.875 -1.703125 12.234375 9.375 
Q 8.59375 20.453125 8.59375 31.390625 
Q 8.59375 42.28125 12.203125 53.3125 
Q 15.828125 64.359375 23.1875 75.875 
z
" id="DejaVuSans-40"/>
      <path d="M 44.28125 53.078125 
L 44.28125 44.578125 
Q 40.484375 46.53125 36.375 47.5 
Q 32.28125 48.484375 27.875 48.484375 
Q 21.1875 48.484375 17.84375 46.4375 
Q 14.5 44.390625 14.5 40.28125 
Q 14.5 37.15625 16.890625 35.375 
Q 19.28125 33.59375 26.515625 31.984375 
L 29.59375 31.296875 
Q 39.15625 29.25 43.1875 25.515625 
Q 47.21875 21.78125 47.21875 15.09375 
Q 47.21875 7.46875 41.1875 3.015625 
Q 35.15625 -1.421875 24.609375 -1.421875 
Q 20.21875 -1.421875 15.453125 -0.5625 
Q 10.6875 0.296875 5.421875 2 
L 5.421875 11.28125 
Q 10.40625 8.6875 15.234375 7.390625 
Q 20.0625 6.109375 24.8125 6.109375 
Q 31.15625 6.109375 34.5625 8.28125 
Q 37.984375 10.453125 37.984375 14.40625 
Q 37.984375 18.0625 35.515625 20.015625 
Q 33.0625 21.96875 24.703125 23.78125 
L 21.578125 24.515625 
Q 13.234375 26.265625 9.515625 29.90625 
Q 5.8125 33.546875 5.8125 39.890625 
Q 5.8125 47.609375 11.28125 51.796875 
Q 16.75 56 26.8125 56 
Q 31.78125 56 36.171875 55.265625 
Q 40.578125 54.546875 44.28125 53.078125 
z
" id="DejaVuSans-115"/>
      <path d="M 48.78125 52.59375 
L 48.78125 44.1875 
Q 44.96875 46.296875 41.140625 47.34375 
Q 37.3125 48.390625 33.40625 48.390625 
Q 24.65625 48.390625 19.8125 42.84375 
Q 14.984375 37.3125 14.984375 27.296875 
Q 14.984375 17.28125 19.8125 11.734375 
Q 24.65625 6.203125 33.40625 6.203125 
Q 37.3125 6.203125 41.140625 7.25 
Q 44.96875 8.296875 48.78125 10.40625 
L 48.78125 2.09375 
Q 45.015625 0.34375 40.984375 -0.53125 
Q 36.96875 -1.421875 32.421875 -1.421875 
Q 20.0625 -1.421875 12.78125 6.34375 
Q 5.515625 14.109375 5.515625 27.296875 
Q 5.515625 40.671875 12.859375 48.328125 
Q 20.21875 56 33.015625 56 
Q 37.15625 56 41.109375 55.140625 
Q 45.0625 54.296875 48.78125 52.59375 
z
" id="DejaVuSans-99"/>
      <path d="M 30.609375 48.390625 
Q 23.390625 48.390625 19.1875 42.75 
Q 14.984375 37.109375 14.984375 27.296875 
Q 14.984375 17.484375 19.15625 11.84375 
Q 23.34375 6.203125 30.609375 6.203125 
Q 37.796875 6.203125 41.984375 11.859375 
Q 46.1875 17.53125 46.1875 27.296875 
Q 46.1875 37.015625 41.984375 42.703125 
Q 37.796875 48.390625 30.609375 48.390625 
z
M 30.609375 56 
Q 42.328125 56 49.015625 48.375 
Q 55.71875 40.765625 55.71875 27.296875 
Q 55.71875 13.875 49.015625 6.21875 
Q 42.328125 -1.421875 30.609375 -1.421875 
Q 18.84375 -1.421875 12.171875 6.21875 
Q 5.515625 13.875 5.515625 27.296875 
Q 5.515625 40.765625 12.171875 48.375 
Q 18.84375 56 30.609375 56 
z
" id="DejaVuSans-111"/>
      <path d="M 54.890625 33.015625 
L 54.890625 0 
L 45.90625 0 
L 45.90625 32.71875 
Q 45.90625 40.484375 42.875 44.328125 
Q 39.84375 48.1875 33.796875 48.1875 
Q 26.515625 48.1875 22.3125 43.546875 
Q 18.109375 38.921875 18.109375 30.90625 
L 18.109375 0 
L 9.078125 0 
L 9.078125 54.6875 
L 18.109375 54.6875 
L 18.109375 46.1875 
Q 21.34375 51.125 25.703125 53.5625 
Q 30.078125 56 35.796875 56 
Q 45.21875 56 50.046875 50.171875 
Q 54.890625 44.34375 54.890625 33.015625 
z
" id="DejaVuSans-110"/>
      <path d="M 45.40625 46.390625 
L 45.40625 75.984375 
L 54.390625 75.984375 
L 54.390625 0 
L 45.40625 0 
L 45.40625 8.203125 
Q 42.578125 3.328125 38.25 0.953125 
Q 33.9375 -1.421875 27.875 -1.421875 
Q 17.96875 -1.421875 11.734375 6.484375 
Q 5.515625 14.40625 5.515625 27.296875 
Q 5.515625 40.1875 11.734375 48.09375 
Q 17.96875 56 27.875 56 
Q 33.9375 56 38.25 53.625 
Q 42.578125 51.265625 45.40625 46.390625 
z
M 14.796875 27.296875 
Q 14.796875 17.390625 18.875 11.75 
Q 22.953125 6.109375 30.078125 6.109375 
Q 37.203125 6.109375 41.296875 11.75 
Q 45.40625 17.390625 45.40625 27.296875 
Q 45.40625 37.203125 41.296875 42.84375 
Q 37.203125 48.484375 30.078125 48.484375 
Q 22.953125 48.484375 18.875 42.84375 
Q 14.796875 37.203125 14.796875 27.296875 
z
" id="DejaVuSans-100"/>
      <path d="M 8.015625 75.875 
L 15.828125 75.875 
Q 23.140625 64.359375 26.78125 53.3125 
Q 30.421875 42.28125 30.421875 31.390625 
Q 30.421875 20.453125 26.78125 9.375 
Q 23.140625 -1.703125 15.828125 -13.1875 
L 8.015625 -13.1875 
Q 14.5 -2 17.703125 9.0625 
Q 20.90625 20.125 20.90625 31.390625 
Q 20.90625 42.671875 17.703125 53.65625 
Q 14.5 64.65625 8.015625 75.875 
z
" id="DejaVuSans-41"/>
     </defs>
     <g transform="translate(195.291406 268.034687)scale(0.1 -0.1)">
      <use xlink:href="#DejaVuSans-84"/>
      <use x="57.958984" xlink:href="#DejaVuSans-105"/>
      <use x="85.742188" xlink:href="#DejaVuSans-109"/>
      <use x="183.154297" xlink:href="#DejaVuSans-101"/>
      <use x="244.677734" xlink:href="#DejaVuSans-32"/>
      <use x="276.464844" xlink:href="#DejaVuSans-40"/>
      <use x="315.478516" xlink:href="#DejaVuSans-115"/>
      <use x="367.578125" xlink:href="#DejaVuSans-101"/>
      <use x="429.101562" xlink:href="#DejaVuSans-99"/>
      <use x="484.082031" xlink:href="#DejaVuSans-111"/>
      <use x="545.263672" xlink:href="#DejaVuSans-110"/>
      <use x="608.642578" xlink:href="#DejaVuSans-100"/>
      <use x="672.119141" xlink:href="#DejaVuSans-115"/>
      <use x="724.21875" xlink:href="#DejaVuSans-41"/>
     </g>
    </g>
   </g>
   <g id="matplotlib.axis_2">
    <g id="ytick_1">
     <g id="line2d_10">
      <defs>
       <path d="M 0 0 
L -3.5 0 
" id="me67872b5c0" style="stroke:#000000;stroke-width:0.8;"/>
      </defs>
      <g>
       <use style="stroke:#000000;stroke-width:0.8;" x="66.053125" xlink:href="#me67872b5c0" y="229.894258"/>
      </g>
     </g>
     <g id="text_11">
      <!-- 0 -->
      <g transform="translate(52.690625 233.693477)scale(0.1 -0.1)">
       <use xlink:href="#DejaVuSans-48"/>
      </g>
     </g>
    </g>
    <g id="ytick_2">
     <g id="line2d_11">
      <g>
       <use style="stroke:#000000;stroke-width:0.8;" x="66.053125" xlink:href="#me67872b5c0" y="190.355759"/>
      </g>
     </g>
     <g id="text_12">
      <!-- 20000 -->
      <g transform="translate(27.240625 194.154977)scale(0.1 -0.1)">
       <use xlink:href="#DejaVuSans-50"/>
       <use x="63.623047" xlink:href="#DejaVuSans-48"/>
       <use x="127.246094" xlink:href="#DejaVuSans-48"/>
       <use x="190.869141" xlink:href="#DejaVuSans-48"/>
       <use x="254.492188" xlink:href="#DejaVuSans-48"/>
      </g>
     </g>
    </g>
    <g id="ytick_3">
     <g id="line2d_12">
      <g>
       <use style="stroke:#000000;stroke-width:0.8;" x="66.053125" xlink:href="#me67872b5c0" y="150.817259"/>
      </g>
     </g>
     <g id="text_13">
      <!-- 40000 -->
      <defs>
       <path d="M 37.796875 64.3125 
L 12.890625 25.390625 
L 37.796875 25.390625 
z
M 35.203125 72.90625 
L 47.609375 72.90625 
L 47.609375 25.390625 
L 58.015625 25.390625 
L 58.015625 17.1875 
L 47.609375 17.1875 
L 47.609375 0 
L 37.796875 0 
L 37.796875 17.1875 
L 4.890625 17.1875 
L 4.890625 26.703125 
z
" id="DejaVuSans-52"/>
      </defs>
      <g transform="translate(27.240625 154.616478)scale(0.1 -0.1)">
       <use xlink:href="#DejaVuSans-52"/>
       <use x="63.623047" xlink:href="#DejaVuSans-48"/>
       <use x="127.246094" xlink:href="#DejaVuSans-48"/>
       <use x="190.869141" xlink:href="#DejaVuSans-48"/>
       <use x="254.492188" xlink:href="#DejaVuSans-48"/>
      </g>
     </g>
    </g>
    <g id="ytick_4">
     <g id="line2d_13">
      <g>
       <use style="stroke:#000000;stroke-width:0.8;" x="66.053125" xlink:href="#me67872b5c0" y="111.27876"/>
      </g>
     </g>
     <g id="text_14">
      <!-- 60000 -->
      <defs>
       <path d="M 33.015625 40.375 
Q 26.375 40.375 22.484375 35.828125 
Q 18.609375 31.296875 18.609375 23.390625 
Q 18.609375 15.53125 22.484375 10.953125 
Q 26.375 6.390625 33.015625 6.390625 
Q 39.65625 6.390625 43.53125 10.953125 
Q 47.40625 15.53125 47.40625 23.390625 
Q 47.40625 31.296875 43.53125 35.828125 
Q 39.65625 40.375 33.015625 40.375 
z
M 52.59375 71.296875 
L 52.59375 62.3125 
Q 48.875 64.0625 45.09375 64.984375 
Q 41.3125 65.921875 37.59375 65.921875 
Q 27.828125 65.921875 22.671875 59.328125 
Q 17.53125 52.734375 16.796875 39.40625 
Q 19.671875 43.65625 24.015625 45.921875 
Q 28.375 48.1875 33.59375 48.1875 
Q 44.578125 48.1875 50.953125 41.515625 
Q 57.328125 34.859375 57.328125 23.390625 
Q 57.328125 12.15625 50.6875 5.359375 
Q 44.046875 -1.421875 33.015625 -1.421875 
Q 20.359375 -1.421875 13.671875 8.265625 
Q 6.984375 17.96875 6.984375 36.375 
Q 6.984375 53.65625 15.1875 63.9375 
Q 23.390625 74.21875 37.203125 74.21875 
Q 40.921875 74.21875 44.703125 73.484375 
Q 48.484375 72.75 52.59375 71.296875 
z
" id="DejaVuSans-54"/>
      </defs>
      <g transform="translate(27.240625 115.077979)scale(0.1 -0.1)">
       <use xlink:href="#DejaVuSans-54"/>
       <use x="63.623047" xlink:href="#DejaVuSans-48"/>
       <use x="127.246094" xlink:href="#DejaVuSans-48"/>
       <use x="190.869141" xlink:href="#DejaVuSans-48"/>
       <use x="254.492188" xlink:href="#DejaVuSans-48"/>
      </g>
     </g>
    </g>
    <g id="ytick_5">
     <g id="line2d_14">
      <g>
       <use style="stroke:#000000;stroke-width:0.8;" x="66.053125" xlink:href="#me67872b5c0" y="71.740261"/>
      </g>
     </g>
     <g id="text_15">
      <!-- 80000 -->
      <defs>
       <path d="M 31.78125 34.625 
Q 24.75 34.625 20.71875 30.859375 
Q 16.703125 27.09375 16.703125 20.515625 
Q 16.703125 13.921875 20.71875 10.15625 
Q 24.75 6.390625 31.78125 6.390625 
Q 38.8125 6.390625 42.859375 10.171875 
Q 46.921875 13.96875 46.921875 20.515625 
Q 46.921875 27.09375 42.890625 30.859375 
Q 38.875 34.625 31.78125 34.625 
z
M 21.921875 38.8125 
Q 15.578125 40.375 12.03125 44.71875 
Q 8.5 49.078125 8.5 55.328125 
Q 8.5 64.0625 14.71875 69.140625 
Q 20.953125 74.21875 31.78125 74.21875 
Q 42.671875 74.21875 48.875 69.140625 
Q 55.078125 64.0625 55.078125 55.328125 
Q 55.078125 49.078125 51.53125 44.71875 
Q 48 40.375 41.703125 38.8125 
Q 48.828125 37.15625 52.796875 32.3125 
Q 56.78125 27.484375 56.78125 20.515625 
Q 56.78125 9.90625 50.3125 4.234375 
Q 43.84375 -1.421875 31.78125 -1.421875 
Q 19.734375 -1.421875 13.25 4.234375 
Q 6.78125 9.90625 6.78125 20.515625 
Q 6.78125 27.484375 10.78125 32.3125 
Q 14.796875 37.15625 21.921875 38.8125 
z
M 18.3125 54.390625 
Q 18.3125 48.734375 21.84375 45.5625 
Q 25.390625 42.390625 31.78125 42.390625 
Q 38.140625 42.390625 41.71875 45.5625 
Q 45.3125 48.734375 45.3125 54.390625 
Q 45.3125 60.0625 41.71875 63.234375 
Q 38.140625 66.40625 31.78125 66.40625 
Q 25.390625 66.40625 21.84375 63.234375 
Q 18.3125 60.0625 18.3125 54.390625 
z
" id="DejaVuSans-56"/>
      </defs>
      <g transform="translate(27.240625 75.539479)scale(0.1 -0.1)">
       <use xlink:href="#DejaVuSans-56"/>
       <use x="63.623047" xlink:href="#DejaVuSans-48"/>
       <use x="127.246094" xlink:href="#DejaVuSans-48"/>
       <use x="190.869141" xlink:href="#DejaVuSans-48"/>
       <use x="254.492188" xlink:href="#DejaVuSans-48"/>
      </g>
     </g>
    </g>
    <g id="ytick_6">
     <g id="line2d_15">
      <g>
       <use style="stroke:#000000;stroke-width:0.8;" x="66.053125" xlink:href="#me67872b5c0" y="32.201761"/>
      </g>
     </g>
     <g id="text_16">
      <!-- 100000 -->
      <g transform="translate(20.878125 36.00098)scale(0.1 -0.1)">
       <use xlink:href="#DejaVuSans-49"/>
       <use x="63.623047" xlink:href="#DejaVuSans-48"/>
       <use x="127.246094" xlink:href="#DejaVuSans-48"/>
       <use x="190.869141" xlink:href="#DejaVuSans-48"/>
       <use x="254.492188" xlink:href="#DejaVuSans-48"/>
       <use x="318.115234" xlink:href="#DejaVuSans-48"/>
      </g>
     </g>
    </g>
    <g id="text_17">
     <!-- Nodes -->
     <defs>
      <path d="M 9.8125 72.90625 
L 23.09375 72.90625 
L 55.421875 11.921875 
L 55.421875 72.90625 
L 64.984375 72.90625 
L 64.984375 0 
L 51.703125 0 
L 19.390625 60.984375 
L 19.390625 0 
L 9.8125 0 
z
" id="DejaVuSans-78"/>
     </defs>
     <g transform="translate(14.798438 146.693594)rotate(-90)scale(0.1 -0.1)">
      <use xlink:href="#DejaVuSans-78"/>
      <use x="74.804688" xlink:href="#DejaVuSans-111"/>
      <use x="135.986328" xlink:href="#DejaVuSans-100"/>
      <use x="199.462891" xlink:href="#DejaVuSans-101"/>
      <use x="260.986328" xlink:href="#DejaVuSans-115"/>
     </g>
    </g>
   </g>
   <g id="patch_3">
    <path d="M 66.053125 239.758125 
L 66.053125 22.318125 
" style="fill:none;stroke:#000000;stroke-linecap:square;stroke-linejoin:miter;stroke-width:0.8;"/>
   </g>
   <g id="patch_4">
    <path d="M 400.853125 239.758125 
L 400.853125 22.318125 
" style="fill:none;stroke:#000000;stroke-linecap:square;stroke-linejoin:miter;stroke-width:0.8;"/>
   </g>
   <g id="patch_5">
    <path d="M 66.053125 239.758125 
L 400.853125 239.758125 
" style="fill:none;stroke:#000000;stroke-linecap:square;stroke-linejoin:miter;stroke-width:0.8;"/>
   </g>
   <g id="patch_6">
    <path d="M 66.053125 22.318125 
L 400.853125 22.318125 
" style="fill:none;stroke:#000000;stroke-linecap:square;stroke-linejoin:miter;stroke-width:0.8;"/>
   </g>
   <g id="text_18">
    <!-- Kruskal naive -->
    <defs>
     <path d="M 9.8125 72.90625 
L 19.671875 72.90625 
L 19.671875 42.09375 
L 52.390625 72.90625 
L 65.09375 72.90625 
L 28.90625 38.921875 
L 67.671875 0 
L 54.6875 0 
L 19.671875 35.109375 
L 19.671875 0 
L 9.8125 0 
z
" id="DejaVuSans-75"/>
     <path d="M 41.109375 46.296875 
Q 39.59375 47.171875 37.8125 47.578125 
Q 36.03125 48 33.890625 48 
Q 26.265625 48 22.1875 43.046875 
Q 18.109375 38.09375 18.109375 28.8125 
L 18.109375 0 
L 9.078125 0 
L 9.078125 54.6875 
L 18.109375 54.6875 
L 18.109375 46.1875 
Q 20.953125 51.171875 25.484375 53.578125 
Q 30.03125 56 36.53125 56 
Q 37.453125 56 38.578125 55.875 
Q 39.703125 55.765625 41.0625 55.515625 
z
" id="DejaVuSans-114"/>
     <path d="M 8.5 21.578125 
L 8.5 54.6875 
L 17.484375 54.6875 
L 17.484375 21.921875 
Q 17.484375 14.15625 20.5 10.265625 
Q 23.53125 6.390625 29.59375 6.390625 
Q 36.859375 6.390625 41.078125 11.03125 
Q 45.3125 15.671875 45.3125 23.6875 
L 45.3125 54.6875 
L 54.296875 54.6875 
L 54.296875 0 
L 45.3125 0 
L 45.3125 8.40625 
Q 42.046875 3.421875 37.71875 1 
Q 33.40625 -1.421875 27.6875 -1.421875 
Q 18.265625 -1.421875 13.375 4.4375 
Q 8.5 10.296875 8.5 21.578125 
z
M 31.109375 56 
z
" id="DejaVuSans-117"/>
     <path d="M 9.078125 75.984375 
L 18.109375 75.984375 
L 18.109375 31.109375 
L 44.921875 54.6875 
L 56.390625 54.6875 
L 27.390625 29.109375 
L 57.625 0 
L 45.90625 0 
L 18.109375 26.703125 
L 18.109375 0 
L 9.078125 0 
z
" id="DejaVuSans-107"/>
     <path d="M 34.28125 27.484375 
Q 23.390625 27.484375 19.1875 25 
Q 14.984375 22.515625 14.984375 16.5 
Q 14.984375 11.71875 18.140625 8.90625 
Q 21.296875 6.109375 26.703125 6.109375 
Q 34.1875 6.109375 38.703125 11.40625 
Q 43.21875 16.703125 43.21875 25.484375 
L 43.21875 27.484375 
z
M 52.203125 31.203125 
L 52.203125 0 
L 43.21875 0 
L 43.21875 8.296875 
Q 40.140625 3.328125 35.546875 0.953125 
Q 30.953125 -1.421875 24.3125 -1.421875 
Q 15.921875 -1.421875 10.953125 3.296875 
Q 6 8.015625 6 15.921875 
Q 6 25.140625 12.171875 29.828125 
Q 18.359375 34.515625 30.609375 34.515625 
L 43.21875 34.515625 
L 43.21875 35.40625 
Q 43.21875 41.609375 39.140625 45 
Q 35.0625 48.390625 27.6875 48.390625 
Q 23 48.390625 18.546875 47.265625 
Q 14.109375 46.140625 10.015625 43.890625 
L 10.015625 52.203125 
Q 14.9375 54.109375 19.578125 55.046875 
Q 24.21875 56 28.609375 56 
Q 40.484375 56 46.34375 49.84375 
Q 52.203125 43.703125 52.203125 31.203125 
z
" id="DejaVuSans-97"/>
     <path d="M 9.421875 75.984375 
L 18.40625 75.984375 
L 18.40625 0 
L 9.421875 0 
z
" id="DejaVuSans-108"/>
     <path d="M 2.984375 54.6875 
L 12.5 54.6875 
L 29.59375 8.796875 
L 46.6875 54.6875 
L 56.203125 54.6875 
L 35.6875 0 
L 23.484375 0 
z
" id="DejaVuSans-118"/>
    </defs>
    <g transform="translate(193.114375 16.318125)scale(0.12 -0.12)">
     <use xlink:href="#DejaVuSans-75"/>
     <use x="65.576172" xlink:href="#DejaVuSans-114"/>
     <use x="106.689453" xlink:href="#DejaVuSans-117"/>
     <use x="170.068359" xlink:href="#DejaVuSans-115"/>
     <use x="222.167969" xlink:href="#DejaVuSans-107"/>
     <use x="278.328125" xlink:href="#DejaVuSans-97"/>
     <use x="339.607422" xlink:href="#DejaVuSans-108"/>
     <use x="367.390625" xlink:href="#DejaVuSans-32"/>
     <use x="399.177734" xlink:href="#DejaVuSans-110"/>
     <use x="462.556641" xlink:href="#DejaVuSans-97"/>
     <use x="523.835938" xlink:href="#DejaVuSans-105"/>
     <use x="551.619141" xlink:href="#DejaVuSans-118"/>
     <use x="610.798828" xlink:href="#DejaVuSans-101"/>
    </g>
   </g>
  </g>
 </g>
 <defs>
  <clipPath id="pdebf0c949a">
   <rect height="217.44" width="334.8" x="66.053125" y="22.318125"/>
  </clipPath>
 </defs>
</svg>
